# xmcd CD database file
#
# Track frame offsets:
#	150
#	16040
#	36327
#	48752
#	70152
#	93095
#	108647
#	131737
#	147612
#	160790
#	173175
#	189702
#	243325
#	280792
#	297592
#	321325
#
# Disc length: 4614 seconds
#
# Revision: 2
# Processed by: cddbd v1.4PL0 Copyright (c) Steve Scherf et al.
# Submitted via: CDex 1.50
#
DISCID=eb120410
DTITLE=Johnny Winter - The Best of Johnny Winter
DYEAR=2002
DGENRE=Rock
TTITLE0=Rock and Roll, Hoochie Koo
TTITLE1=I'm Yours and I'm Hers
TTITLE2=Johnny B. Goode
TTITLE3=I'll Drown in My Tears
TTITLE4=Come On in My Kitchen
TTITLE5=Rollin' and Tumblin'
TTITLE6=Highway 61 Revisited
TTITLE7=Hustled Down in Texas
TTITLE8=Mother-in-Law Blues
TTITLE9=Dallas
TTITLE10=Miss Ann
TTITLE11=It's My Own Fault (Live)
TTITLE12=Mean Town Blues (Live)
TTITLE13=Sill Alive and Well
TTITLE14=Be Careful With a Fool
TTITLE15=Memory Pain
EXTD=YEAR: 2002
EXTT0=
EXTT1=
EXTT2=
EXTT3=
EXTT4=
EXTT5=
EXTT6=
EXTT7=
EXTT8=
EXTT9=
EXTT10=
EXTT11=
EXTT12=
EXTT13=
EXTT14=
EXTT15=
PLAYORDER=
